# xmcd CD database file
#
# Track frame offsets:
#	150
#	23032
#	41712
#	44063
#	57227
#	79891
#	94104
#	112402
#	115699
#	131704
#	134371
#	138384
#	149614
#	162706
#	179759
#
# Disc length: 2808 seconds
#
# Revision: 0
# Processed by: cddbd v1.5.2PL0 Copyright (c) Steve Scherf et al.
# Submitted via: CDex 1.70beta2
#
DISCID=ee0af60f
DTITLE=Gutter Music - Gutter Music
DYEAR=1999
DGENRE=Jazz
TTITLE0=Fast Desaster
TTITLE1=Not away
TTITLE2=Jingle I
TTITLE3=Morgen werden die schwarzen Vögel kommen
TTITLE4=Chill out room
TTITLE5=Kleiner Untergang
TTITLE6=Und Ich? Ich bin der Depp!
TTITLE7=Industrial Gruft Muck
TTITLE8=Away
TTITLE9=Jingle II
TTITLE10=Grünkreuz
TTITLE11=Inner Circle
TTITLE12=Goofy´s Groove
TTITLE13=The Last Circus
TTITLE14=D. D.
EXTD=YEAR: 1999
EXTT0=
EXTT1=
EXTT2=
EXTT3=
EXTT4=
EXTT5=
EXTT6=
EXTT7=
EXTT8=
EXTT9=
EXTT10=
EXTT11=
EXTT12=
EXTT13=
EXTT14=
PLAYORDER=
